%FSLAX34Y34*%
%MOMM*%
%LNCOPPER_BOTTOM*%
G71*
G01*
%ADD10C, 2.00*%
%ADD11C, 0.70*%
%LPD*%
X38100Y965200D02*
G54D10*
D03*
X38100Y939800D02*
G54D10*
D03*
X38100Y914400D02*
G54D10*
D03*
X38100Y889000D02*
G54D10*
D03*
X38100Y863600D02*
G54D10*
D03*
X38100Y838200D02*
G54D10*
D03*
X38100Y812800D02*
G54D10*
D03*
X190500Y812800D02*
G54D10*
D03*
X190500Y838200D02*
G54D10*
D03*
X190500Y863600D02*
G54D10*
D03*
X190500Y889000D02*
G54D10*
D03*
X190500Y914400D02*
G54D10*
D03*
X190500Y939800D02*
G54D10*
D03*
X190500Y965200D02*
G54D10*
D03*
G54D11*
X38100Y965200D02*
X190500Y965200D01*
G54D11*
X38100Y939800D02*
X50800Y939800D01*
X63500Y952500D01*
X177800Y952500D01*
X190500Y939800D01*
G54D11*
X38100Y914400D02*
X50800Y914400D01*
X76200Y939800D01*
X165100Y939800D01*
X190500Y914400D01*
G54D11*
X38100Y812800D02*
X190500Y812800D01*
G54D11*
X38100Y838200D02*
X50800Y838200D01*
X63500Y825500D01*
X177800Y825500D01*
X190500Y838200D01*
G54D11*
X38100Y863600D02*
X50800Y863600D01*
X76200Y838200D01*
X165100Y838200D01*
X190500Y863600D01*
G54D11*
X38100Y889000D02*
X63500Y901700D01*
X88900Y927100D01*
X152400Y927100D01*
X190500Y889000D01*
X190500Y965200D02*
G54D10*
D03*
G54D11*
X190500Y965200D02*
X228600Y965200D01*
X241300Y952500D01*
X241300Y825500D01*
X228600Y812800D01*
X190500Y812800D01*
M02*
